<svg xmlns="http://www.w3.org/2000/svg" width="24" height="24" viewBox="0 0 24 24" fill="none">
  <path d="M23.04 12.2615C23.04 11.4469 22.9677 10.6646 22.8323 9.91309H12V14.3569H18.1892C17.9225 15.7969 17.1069 17.0123 15.8923 17.8269V20.7138H19.48C21.6538 18.7007 23.04 15.7553 23.04 12.2615Z" fill="#4285F4"/>
  <path d="M12 23.5C15.24 23.5 17.9569 22.4269 19.48 20.7138L15.8923 17.8269C15.0669 18.38 13.9538 18.7269 12 18.7269C8.86615 18.7269 6.24 16.6923 5.3 13.8731H1.59229V16.8538C3.10692 20.5746 7.23077 23.5 12 23.5Z" fill="#34A853"/>
  <path d="M5.3 13.8731C5.06154 13.32 4.92308 12.7269 4.92308 12.1C4.92308 11.4731 5.06154 10.88 5.3 10.3269V7.34615H1.59229C0.853846 8.89231 0.423065 10.4615 0.423065 12.1C0.423065 13.7385 0.853846 15.3077 1.59229 16.8538L5.3 13.8731Z" fill="#FBBC05"/>
  <path d="M12 5.47308C14.1231 5.47308 15.8 6.2 17.02 7.35385L19.5662 4.80769C17.9569 3.3 15.24 2.1 12 2.1C7.23077 2.1 3.10692 5.02538 1.59229 8.74615L5.3 11.7269C6.24 8.90769 8.86615 6.87308 12 6.87308V5.47308Z" fill="#EA4335"/>
</svg>


